<svg xmlns="http://www.w3.org/2000/svg" width="108.338" height="49.736" viewBox="0 0 108.338 49.736">
  <g id="Group_3125" data-name="Group 3125" transform="translate(-24.09 -91.084)">
    <path id="Path_16193" data-name="Path 16193" d="M248.554,111.084" transform="translate(-116.126 21.369)" fill="none" stroke="#281e78" stroke-miterlimit="10" stroke-width="1"/>
    <path id="Path_16194" data-name="Path 16194" d="M97.606,83.207a5.7,5.7,0,0,1,2.228-.407v2.931q-.529-.041-.712-.041a2.912,2.912,0,0,0-2.138.764,3.087,3.087,0,0,0-.774,2.29v5.17H93.036V82.963h3.033v1.446A3.538,3.538,0,0,1,97.606,83.207Z" transform="translate(-35.669 36.002)" fill="#281e78"/>
    <path id="Path_16195" data-name="Path 16195" d="M128.336,84.011a4.937,4.937,0,0,1,1.211,3.633v6.27h-3.175V88.133a2.969,2.969,0,0,0-.54-1.944,1.9,1.9,0,0,0-1.537-.641,2.266,2.266,0,0,0-1.771.723,3.115,3.115,0,0,0-.652,2.147v5.5H118.7V88.133q0-2.584-2.076-2.585a2.242,2.242,0,0,0-1.751.723,3.115,3.115,0,0,0-.652,2.147v5.5h-3.175V82.963h3.033v1.262a4.01,4.01,0,0,1,1.5-1.058,5.038,5.038,0,0,1,1.944-.366,4.711,4.711,0,0,1,2.1.458,3.722,3.722,0,0,1,1.507,1.333,4.5,4.5,0,0,1,1.7-1.323,5.362,5.362,0,0,1,2.25-.468A4.418,4.418,0,0,1,128.336,84.011Z" transform="translate(-44.985 36.002)" fill="#281e78"/>
    <path id="Path_16196" data-name="Path 16196" d="M165.329,89.334h-8.284a2.576,2.576,0,0,0,1.059,1.608,3.5,3.5,0,0,0,2.075.59,4.2,4.2,0,0,0,1.517-.254,3.67,3.67,0,0,0,1.231-.8l1.69,1.832a5.681,5.681,0,0,1-4.519,1.771,7.141,7.141,0,0,1-3.277-.723,5.29,5.29,0,0,1-2.2-2,5.522,5.522,0,0,1-.774-2.91,5.6,5.6,0,0,1,.763-2.9,5.353,5.353,0,0,1,2.1-2.016,6.489,6.489,0,0,1,5.893-.03,5.049,5.049,0,0,1,2.045,1.984,5.92,5.92,0,0,1,.743,3Q165.39,88.539,165.329,89.334Zm-7.43-3.521a2.6,2.6,0,0,0-.9,1.669H162.4a2.629,2.629,0,0,0-.9-1.659,2.678,2.678,0,0,0-1.791-.621A2.737,2.737,0,0,0,157.9,85.812Z" transform="translate(-67.13 36.002)" fill="#281e78"/>
    <path id="Path_16197" data-name="Path 16197" d="M192.09,84.022a4.843,4.843,0,0,1,1.252,3.623v6.27h-3.175V88.133a2.852,2.852,0,0,0-.57-1.944,2.091,2.091,0,0,0-1.648-.641,2.528,2.528,0,0,0-1.914.743,3.077,3.077,0,0,0-.713,2.209v5.414h-3.175V82.963h3.033v1.282a4.224,4.224,0,0,1,1.568-1.068A5.463,5.463,0,0,1,188.8,82.8,4.5,4.5,0,0,1,192.09,84.022Z" transform="translate(-81.77 36.002)" fill="#281e78"/>
    <path id="Path_16198" data-name="Path 16198" d="M211.036,75.669a1.725,1.725,0,0,1,0-2.524,2.017,2.017,0,0,1,1.425-.509,2.068,2.068,0,0,1,1.425.488,1.568,1.568,0,0,1,.549,1.222,1.727,1.727,0,0,1-.549,1.313,1.993,1.993,0,0,1-1.425.519A2.015,2.015,0,0,1,211.036,75.669Zm-.163,2.035h3.175V88.656h-3.175Z" transform="translate(-96.432 41.26)" fill="#281e78"/>
    <path id="Path_16199" data-name="Path 16199" d="M231.544,84.011a4.637,4.637,0,0,1,1.364,3.654v6.249h-2.972V92.55a3.54,3.54,0,0,1-3.339,1.527,5.181,5.181,0,0,1-2.188-.427,3.266,3.266,0,0,1-1.415-1.181,3.076,3.076,0,0,1-.488-1.711,2.853,2.853,0,0,1,1.15-2.4,5.864,5.864,0,0,1,3.552-.875h2.524a2.025,2.025,0,0,0-.631-1.6,2.78,2.78,0,0,0-1.893-.559,5.534,5.534,0,0,0-1.72.275,4.568,4.568,0,0,0-1.435.743l-1.14-2.219a6.873,6.873,0,0,1,2.147-.977,9.618,9.618,0,0,1,2.575-.346A5.7,5.7,0,0,1,231.544,84.011Zm-2.707,7.552a2.058,2.058,0,0,0,.9-1.109v-1.12h-2.178q-1.955,0-1.954,1.282a1.139,1.139,0,0,0,.479.967,2.148,2.148,0,0,0,1.312.357A2.763,2.763,0,0,0,228.837,91.563Z" transform="translate(-102.65 36.002)" fill="#281e78"/>
    <path id="Path_16200" data-name="Path 16200" d="M62.151,83.543a9.765,9.765,0,0,0,2.5.336,6.231,6.231,0,0,0,1.975-.263l-2.247-5.428Z" transform="translate(-19.691 38.388)" fill="none"/>
    <path id="Path_16201" data-name="Path 16201" d="M58.547,70.609a4.718,4.718,0,0,1-.692,1.61,5.553,5.553,0,0,1-2.478,1.935,8.6,8.6,0,0,1-2.205.584c-.219.031-.447.053-.676.074l-2.124,4.764-.717,1.59.006,0-2.868,6.435h4.092l2.056-4.942a14.125,14.125,0,0,0,3.74.5,11.033,11.033,0,0,0,3.253-.44l2.021,4.882h4.191Zm-1.841,9.349a9.765,9.765,0,0,1-2.5-.336l2.227-5.355L58.68,79.7A6.231,6.231,0,0,1,56.706,79.958Z" transform="translate(-11.745 42.309)" fill="#ff5523"/>
    <path id="Path_16202" data-name="Path 16202" d="M52.337,49.41a5.356,5.356,0,0,0-2.157-1.479,28.236,28.236,0,0,0-3.23-.937,14.482,14.482,0,0,1-2.823-.851,1.4,1.4,0,0,1-.924-1.319,1.655,1.655,0,0,1,.8-1.43,4.48,4.48,0,0,1,2.477-.543,9.628,9.628,0,0,1,4.783,1.356L52.5,41.176a9.537,9.537,0,0,0-2.761-1.134,13.284,13.284,0,0,0-3.229-.394,10.015,10.015,0,0,0-4.007.715A5.47,5.47,0,0,0,40.047,42.3a4.8,4.8,0,0,0-.814,2.724,4.059,4.059,0,0,0,.9,2.761,5.239,5.239,0,0,0,2.157,1.5,27.933,27.933,0,0,0,3.229.937q1.281.3,2.034.542a3.651,3.651,0,0,1,1.233.654,1.285,1.285,0,0,1,.481,1.023,1.439,1.439,0,0,1-.155.643,1.5,1.5,0,0,1-.315.437,2.13,2.13,0,0,1-.344.264,4.88,4.88,0,0,1-2.515.505,9.906,9.906,0,0,1-3.057-.493,9.2,9.2,0,0,1-2.638-1.307L38.888,55.5a9.275,9.275,0,0,0,3.069,1.442,13.861,13.861,0,0,0,1.718.376,14.371,14.371,0,0,0,2.24.179c.4,0,.772-.024,1.137-.057.229-.021.458-.042.676-.074a8.6,8.6,0,0,0,2.206-.584,5.552,5.552,0,0,0,2.478-1.935,4.723,4.723,0,0,0,.692-1.61,4.85,4.85,0,0,0,.134-1.09A3.967,3.967,0,0,0,52.337,49.41Z" transform="translate(-7.656 58.327)" fill="#281e78"/>
    <path id="Path_16203" data-name="Path 16203" d="M79.56,59.315a1.983,1.983,0,0,1-.72.38,3.015,3.015,0,0,1-.886.131,2.347,2.347,0,0,1-1.715-.6,2.266,2.266,0,0,1-.609-1.7V53.5H74.384V52.41H75.63v-1.6h1.328v1.6h2.1V53.5h-2.1v3.971a1.287,1.287,0,0,0,.3.913,1.108,1.108,0,0,0,.851.319,1.6,1.6,0,0,0,1.038-.346Z" transform="translate(-26.019 52.554)" fill="#281e78"/>
    <path id="Path_16204" data-name="Path 16204" d="M92.825,54.735a2.881,2.881,0,0,1,.809,2.227V61.39H92.376v-.969a2.107,2.107,0,0,1-.948.782,3.624,3.624,0,0,1-1.46.269,3.052,3.052,0,0,1-1.972-.6,2.045,2.045,0,0,1-.034-3.119A3.476,3.476,0,0,1,90.2,57.17h2.1v-.263a1.7,1.7,0,0,0-.5-1.315,2.1,2.1,0,0,0-1.466-.457,3.9,3.9,0,0,0-1.273.215,3.3,3.3,0,0,0-1.052.574l-.553-1a4,4,0,0,1,1.356-.7,5.662,5.662,0,0,1,1.674-.242A3.316,3.316,0,0,1,92.825,54.735ZM91.5,60.11a1.942,1.942,0,0,0,.8-.961V58.125H90.259q-1.689,0-1.688,1.135a1.024,1.024,0,0,0,.429.871,1.958,1.958,0,0,0,1.19.319A2.462,2.462,0,0,0,91.5,60.11Z" transform="translate(-32.679 50.908)" fill="#281e78"/>
    <path id="Path_16205" data-name="Path 16205" d="M116.939,54.79a3.21,3.21,0,0,1,.81,2.38v4.22h-1.328V57.322a2.312,2.312,0,0,0-.491-1.6,1.8,1.8,0,0,0-1.4-.54,2.1,2.1,0,0,0-1.605.629,2.53,2.53,0,0,0-.6,1.806V61.39H111V57.322a2.314,2.314,0,0,0-.491-1.6,1.8,1.8,0,0,0-1.4-.54,2.1,2.1,0,0,0-1.605.629,2.532,2.532,0,0,0-.6,1.806V61.39h-1.328V54.057h1.273V55.15a2.573,2.573,0,0,1,1.052-.865,3.521,3.521,0,0,1,1.481-.3,3.253,3.253,0,0,1,1.522.346,2.412,2.412,0,0,1,1.024,1.01,2.811,2.811,0,0,1,1.155-1,3.762,3.762,0,0,1,1.667-.36A2.977,2.977,0,0,1,116.939,54.79Z" transform="translate(-42.155 50.908)" fill="#281e78"/>
    <path id="Path_16206" data-name="Path 16206" d="M141.673,54.458a3.386,3.386,0,0,1,1.322,1.315,3.9,3.9,0,0,1,.477,1.951,3.937,3.937,0,0,1-.477,1.958A3.373,3.373,0,0,1,141.673,61a3.854,3.854,0,0,1-1.909.47,3.4,3.4,0,0,1-1.446-.3,3.01,3.01,0,0,1-1.114-.885v3.79h-1.328V54.057h1.273v1.163a2.816,2.816,0,0,1,1.121-.92,3.535,3.535,0,0,1,1.494-.311A3.854,3.854,0,0,1,141.673,54.458Zm-.754,5.527a2.33,2.33,0,0,0,.886-.913,2.959,2.959,0,0,0,0-2.7,2.29,2.29,0,0,0-.886-.906,2.519,2.519,0,0,0-1.266-.318,2.449,2.449,0,0,0-1.252.325,2.354,2.354,0,0,0-.886.906,2.7,2.7,0,0,0-.325,1.342,2.783,2.783,0,0,0,.318,1.349,2.27,2.27,0,0,0,.886.913,2.609,2.609,0,0,0,2.525,0Z" transform="translate(-57.832 50.908)" fill="#281e78"/>
    <path id="Path_16207" data-name="Path 16207" d="M154.806,61.231a3.794,3.794,0,0,1-1.3-.616l.554-1.051a3.981,3.981,0,0,0,1.176.553,4.838,4.838,0,0,0,1.4.208q1.743,0,1.743-1a.647.647,0,0,0-.235-.526,1.506,1.506,0,0,0-.588-.284q-.353-.09-1-.2A9.828,9.828,0,0,1,155.1,58a2.222,2.222,0,0,1-.962-.609,1.691,1.691,0,0,1-.4-1.2,1.878,1.878,0,0,1,.83-1.6,3.717,3.717,0,0,1,2.228-.6,6.145,6.145,0,0,1,1.466.18,3.952,3.952,0,0,1,1.2.484L158.9,55.7a3.82,3.82,0,0,0-2.117-.581,2.453,2.453,0,0,0-1.287.277.835.835,0,0,0-.443.734.7.7,0,0,0,.249.567,1.567,1.567,0,0,0,.616.3q.366.1,1.03.221a11.224,11.224,0,0,1,1.432.325,2.148,2.148,0,0,1,.934.588A1.64,1.64,0,0,1,159.7,59.3a1.833,1.833,0,0,1-.851,1.584,4.019,4.019,0,0,1-2.318.588A6.151,6.151,0,0,1,154.806,61.231Z" transform="translate(-66.952 50.908)" fill="#281e78"/>
    <path id="Path_16208" data-name="Path 16208" d="M177.949,60.989a3.51,3.51,0,0,1-1.363-1.335,4.039,4.039,0,0,1,0-3.86,3.467,3.467,0,0,1,1.363-1.329,4.024,4.024,0,0,1,1.965-.477,3.983,3.983,0,0,1,1.958.477,3.481,3.481,0,0,1,1.356,1.329,4.039,4.039,0,0,1,0,3.86,3.525,3.525,0,0,1-1.356,1.335,3.93,3.93,0,0,1-1.958.484A3.971,3.971,0,0,1,177.949,60.989Zm3.231-1a2.286,2.286,0,0,0,.878-.913,3.019,3.019,0,0,0,0-2.7,2.247,2.247,0,0,0-.878-.906,2.679,2.679,0,0,0-2.532,0,2.294,2.294,0,0,0-.886.906,2.963,2.963,0,0,0,0,2.7,2.334,2.334,0,0,0,.886.913,2.624,2.624,0,0,0,2.532,0Z" transform="translate(-78.639 50.908)" fill="#281e78"/>
    <path id="Path_16209" data-name="Path 16209" d="M196.07,50.261V50.9H198.2v1.094h-2.1v6.24H194.77v-6.24h-1.246V50.9h1.246v-.65a2.335,2.335,0,0,1,.636-1.729,2.413,2.413,0,0,1,1.785-.636,3.024,3.024,0,0,1,.83.111,2.024,2.024,0,0,1,.665.318l-.4,1.01a1.654,1.654,0,0,0-1.024-.346Q196.07,48.975,196.07,50.261Z" transform="translate(-87.656 54.067)" fill="#281e78"/>
    <path id="Path_16210" data-name="Path 16210" d="M158.479,121.012a1.222,1.222,0,0,1,.242.779,1.121,1.121,0,0,1-.475.971,2.362,2.362,0,0,1-1.383.34h-2.316v-4.853h2.177a2.149,2.149,0,0,1,1.286.333,1.08,1.08,0,0,1,.454.922,1.2,1.2,0,0,1-.177.658,1.15,1.15,0,0,1-.475.423A1.247,1.247,0,0,1,158.479,121.012Zm-3.238-2.2v1.553h1.421a1.444,1.444,0,0,0,.822-.2.726.726,0,0,0,0-1.158,1.444,1.444,0,0,0-.822-.2Zm2.482,3.535a.675.675,0,0,0,.3-.61q0-.812-1.186-.811h-1.594v1.616h1.594A1.642,1.642,0,0,0,157.723,122.346Z" transform="translate(-67.492 17.663)" fill="#281e78"/>
    <path id="Path_16211" data-name="Path 16211" d="M166.254,121.424V123.1h-.686V121.41l-1.928-3.161h.742l1.553,2.559,1.56-2.559h.687Z" transform="translate(-72.196 17.663)" fill="#281e78"/>
    <path id="Path_16212" data-name="Path 16212" d="M182.536,118.249V123.1h-.693v-2.163h-2.786V123.1h-.694v-4.853h.694v2.086h2.786v-2.086Z" transform="translate(-79.812 17.663)" fill="#281e78"/>
    <path id="Path_16213" data-name="Path 16213" d="M192.33,121.889h-2.579l-.534,1.213H188.5l2.2-4.853h.686l2.205,4.853h-.728Zm-.243-.555-1.046-2.378-1.047,2.378Z" transform="translate(-85.058 17.663)" fill="#281e78"/>
    <path id="Path_16214" data-name="Path 16214" d="M200.985,121.424V123.1H200.3V121.41l-1.928-3.161h.742l1.553,2.559,1.56-2.559h.687Z" transform="translate(-90.164 17.663)" fill="#281e78"/>
    <path id="Path_16215" data-name="Path 16215" d="M212.434,118.7a1.693,1.693,0,0,1,0,2.482,2.249,2.249,0,0,1-1.483.451h-1.2v1.47h-.694v-4.853h1.893A2.249,2.249,0,0,1,212.434,118.7Zm-.5,2.048a1.113,1.113,0,0,0,0-1.615,1.564,1.564,0,0,0-1-.281h-1.179v2.177h1.179A1.564,1.564,0,0,0,211.935,120.748Z" transform="translate(-95.692 17.663)" fill="#281e78"/>
    <path id="Path_16216" data-name="Path 16216" d="M219.872,122.776a2.381,2.381,0,0,1-.925-.891,2.56,2.56,0,0,1,0-2.537,2.384,2.384,0,0,1,.925-.891,2.866,2.866,0,0,1,2.642,0,2.367,2.367,0,0,1,.922.888,2.6,2.6,0,0,1,0,2.544,2.364,2.364,0,0,1-.922.888,2.87,2.87,0,0,1-2.642,0Zm2.284-.538a1.77,1.77,0,0,0,.673-.669,1.971,1.971,0,0,0,0-1.906,1.778,1.778,0,0,0-.673-.669,1.909,1.909,0,0,0-.96-.242,1.95,1.95,0,0,0-.967.242,1.765,1.765,0,0,0-.68.669,1.968,1.968,0,0,0,0,1.906,1.758,1.758,0,0,0,.68.669,1.94,1.94,0,0,0,.967.243A1.9,1.9,0,0,0,222.156,122.238Z" transform="translate(-100.634 17.722)" fill="#281e78"/>
    <path id="Path_16217" data-name="Path 16217" d="M231.376,122.928a2.169,2.169,0,0,1-.8-.441l.256-.541a2.12,2.12,0,0,0,.71.405,2.607,2.607,0,0,0,.891.156,1.61,1.61,0,0,0,.9-.2.631.631,0,0,0,.3-.544.537.537,0,0,0-.163-.405,1.1,1.1,0,0,0-.4-.24q-.24-.083-.676-.187a6.965,6.965,0,0,1-.884-.264,1.464,1.464,0,0,1-.576-.405,1.086,1.086,0,0,1-.239-.738,1.248,1.248,0,0,1,.2-.7,1.4,1.4,0,0,1,.621-.5,2.518,2.518,0,0,1,1.033-.187,3.252,3.252,0,0,1,.846.112,2.26,2.26,0,0,1,.714.318l-.229.555a2.508,2.508,0,0,0-.652-.294,2.419,2.419,0,0,0-.68-.1,1.5,1.5,0,0,0-.884.215.658.658,0,0,0-.294.554.528.528,0,0,0,.167.406,1.144,1.144,0,0,0,.412.242,6.134,6.134,0,0,0,.669.184,6.882,6.882,0,0,1,.881.264,1.484,1.484,0,0,1,.571.4,1.058,1.058,0,0,1,.239.728,1.237,1.237,0,0,1-.208.7,1.393,1.393,0,0,1-.631.5,2.61,2.61,0,0,1-1.04.183A3.315,3.315,0,0,1,231.376,122.928Z" transform="translate(-106.824 17.722)" fill="#281e78"/>
    <path id="Path_16218" data-name="Path 16218" d="M240.484,118.852H238.82v-.6h4.014v.6H241.17v4.25h-.686Z" transform="translate(-111.09 17.663)" fill="#281e78"/>
    <path id="Path_16221" data-name="Path 16221" d="M28.006,50.111H24.09V47.472a2.639,2.639,0,0,0,0-5.278V40.38a2.639,2.639,0,0,0,0-5.278V33.288a2.639,2.639,0,0,0,0-5.278V25.371h2.8a2.639,2.639,0,0,0,5.278,0h1.814a2.639,2.639,0,0,0,5.278,0h1.814a2.639,2.639,0,0,0,5.278,0h1.812v3.894H28.006Z" transform="translate(0 65.713)" fill="#ff5523"/>
  </g>
</svg>
